<?xml version="1.0" encoding="UTF-8" standalone="no"?>
<!DOCTYPE svg PUBLIC "-//W3C//DTD SVG 1.1//EN" "http://www.w3.org/Graphics/SVG/1.1/DTD/svg11.dtd">
<svg width="100%" height="100%" viewBox="0 0 1620 2160" version="1.1" xmlns="http://www.w3.org/2000/svg" xmlns:xlink="http://www.w3.org/1999/xlink" xml:space="preserve" xmlns:serif="http://www.serif.com/" style="fill-rule:evenodd;clip-rule:evenodd;stroke-linecap:square;stroke-miterlimit:1;">
    <g transform="matrix(1.04395,0,0,1.10135,114.899,-64.0338)">
        <rect x="-156.985" y="-65.493" width="1668.6" height="2118.05" style="fill:rgb(195,194,184);stroke:rgb(183,0,0);stroke-width:23.3px;"/>
    </g>
    <g transform="matrix(0.91045,0,0,0.959613,154.476,113.733)">
        <path d="M1360,122.579C1360,110.117 1349.34,100 1336.2,100L103.798,100C90.664,100 80,110.117 80,122.579L80,557.421C80,569.883 90.664,580 103.798,580L1336.2,580C1349.34,580 1360,569.883 1360,557.421L1360,122.579Z" style="fill:white;stroke:rgb(183,0,0);stroke-width:26.73px;"/>
    </g>
    <g transform="matrix(0.212135,0,0,0.212135,233.42,201.625)">
        <g transform="matrix(614.26,0,0,614.26,338.338,733.03)">
            <path d="M0.263,-0.708L0.516,-0.708L0.792,-0L0.533,-0L0.496,-0.104L0.271,-0.104L0.236,-0L-0.016,-0L0.263,-0.708ZM0.386,-0.461L0.328,-0.286L0.443,-0.286L0.386,-0.461Z" style="fill-rule:nonzero;"/>
        </g>
        <g transform="matrix(614.26,0,0,614.26,926.8,733.03)">
            <path d="M0.299,-0.434L0.515,-0.434L0.515,-0.24L0.3,-0.24L0.3,-0L0.066,-0L0.066,-0.708L0.544,-0.708L0.544,-0.509L0.299,-0.509L0.299,-0.434Z" style="fill:rgb(183,0,0);fill-rule:nonzero;"/>
        </g>
        <g transform="matrix(614.26,0,0,614.26,1235.16,733.03)">
            <path d="M0.263,-0.708L0.516,-0.708L0.792,-0L0.533,-0L0.496,-0.104L0.271,-0.104L0.236,-0L-0.016,-0L0.263,-0.708ZM0.386,-0.461L0.328,-0.286L0.443,-0.286L0.386,-0.461Z" style="fill:rgb(183,0,0);fill-rule:nonzero;"/>
        </g>
        <g transform="matrix(614.26,0,0,614.26,1696.47,733.03)">
            <rect x="0.066" y="-0.708" width="0.24" height="0.708" style="fill:rgb(183,0,0);fill-rule:nonzero;"/>
        </g>
        <g transform="matrix(614.26,0,0,614.26,1909.62,733.03)">
            <path d="M0.066,-0.708L0.371,-0.708C0.406,-0.708 0.44,-0.705 0.475,-0.698C0.509,-0.691 0.54,-0.678 0.567,-0.661C0.594,-0.643 0.615,-0.619 0.632,-0.59C0.649,-0.56 0.657,-0.523 0.657,-0.478C0.657,-0.435 0.646,-0.397 0.625,-0.364C0.604,-0.331 0.573,-0.305 0.533,-0.287L0.713,-0L0.439,-0L0.303,-0.253L0.296,-0.253L0.296,-0L0.066,-0L0.066,-0.708ZM0.294,-0.409L0.341,-0.409C0.349,-0.409 0.358,-0.41 0.368,-0.411C0.377,-0.412 0.386,-0.415 0.395,-0.42C0.403,-0.424 0.41,-0.43 0.416,-0.438C0.421,-0.445 0.424,-0.455 0.424,-0.468C0.424,-0.481 0.422,-0.491 0.417,-0.498C0.412,-0.505 0.406,-0.511 0.399,-0.515C0.392,-0.518 0.384,-0.521 0.375,-0.522C0.366,-0.523 0.358,-0.523 0.351,-0.523L0.294,-0.523L0.294,-0.409Z" style="fill:rgb(183,0,0);fill-rule:nonzero;"/>
        </g>
        <g transform="matrix(614.26,0,0,614.26,2332.84,733.03)">
            <path d="M0.066,-0.708L0.306,-0.708L0.306,-0.204L0.541,-0.204L0.541,-0L0.066,-0L0.066,-0.708Z" style="fill:rgb(183,0,0);fill-rule:nonzero;"/>
        </g>
        <g transform="matrix(614.26,0,0,614.26,2610.49,733.03)">
            <path d="M0.481,-0L0.243,-0L0.243,-0.29L-0.024,-0.708L0.263,-0.708L0.375,-0.5L0.482,-0.708L0.762,-0.708L0.481,-0.29L0.481,-0Z" style="fill:rgb(183,0,0);fill-rule:nonzero;"/>
        </g>
        <g transform="matrix(614.26,0,0,614.26,3171.92,733.03)">
            <path d="M0.426,0.018C0.37,0.018 0.318,0.009 0.271,-0.008C0.223,-0.025 0.182,-0.05 0.147,-0.083C0.112,-0.115 0.084,-0.154 0.064,-0.2C0.044,-0.246 0.034,-0.297 0.034,-0.354C0.034,-0.411 0.044,-0.462 0.064,-0.508C0.084,-0.554 0.111,-0.593 0.146,-0.626C0.181,-0.659 0.221,-0.684 0.268,-0.702C0.315,-0.719 0.365,-0.728 0.418,-0.728C0.473,-0.728 0.526,-0.719 0.576,-0.701C0.625,-0.683 0.666,-0.658 0.697,-0.627L0.558,-0.46C0.543,-0.477 0.526,-0.491 0.506,-0.502C0.486,-0.512 0.461,-0.517 0.432,-0.517C0.413,-0.517 0.394,-0.513 0.376,-0.506C0.357,-0.498 0.341,-0.487 0.327,-0.473C0.313,-0.458 0.302,-0.441 0.293,-0.421C0.284,-0.401 0.28,-0.379 0.28,-0.354C0.28,-0.305 0.293,-0.265 0.319,-0.234C0.344,-0.203 0.385,-0.187 0.442,-0.187C0.452,-0.187 0.462,-0.188 0.473,-0.19C0.484,-0.191 0.492,-0.194 0.498,-0.197L0.498,-0.251L0.384,-0.251L0.384,-0.438L0.709,-0.438L0.709,-0.051C0.692,-0.041 0.673,-0.032 0.652,-0.024C0.63,-0.015 0.607,-0.008 0.583,-0.002C0.558,0.004 0.533,0.009 0.506,0.013C0.479,0.016 0.453,0.018 0.426,0.018Z" style="fill:rgb(183,0,0);fill-rule:nonzero;"/>
        </g>
        <g transform="matrix(614.26,0,0,614.26,3624.63,733.03)">
            <path d="M0.034,-0.358C0.034,-0.415 0.044,-0.466 0.064,-0.512C0.084,-0.557 0.112,-0.596 0.147,-0.628C0.182,-0.66 0.223,-0.685 0.271,-0.702C0.319,-0.719 0.371,-0.728 0.427,-0.728C0.483,-0.728 0.535,-0.719 0.583,-0.702C0.631,-0.685 0.673,-0.66 0.708,-0.628C0.743,-0.596 0.771,-0.557 0.791,-0.512C0.811,-0.466 0.821,-0.415 0.821,-0.358C0.821,-0.301 0.811,-0.25 0.791,-0.203C0.771,-0.156 0.743,-0.117 0.708,-0.084C0.673,-0.051 0.631,-0.025 0.583,-0.007C0.535,0.011 0.483,0.02 0.427,0.02C0.371,0.02 0.319,0.011 0.271,-0.007C0.223,-0.025 0.182,-0.051 0.147,-0.084C0.112,-0.117 0.084,-0.156 0.064,-0.203C0.044,-0.25 0.034,-0.301 0.034,-0.358ZM0.287,-0.358C0.287,-0.335 0.291,-0.313 0.298,-0.294C0.305,-0.275 0.314,-0.258 0.327,-0.244C0.339,-0.23 0.354,-0.219 0.371,-0.212C0.388,-0.204 0.407,-0.2 0.427,-0.2C0.447,-0.2 0.466,-0.204 0.483,-0.212C0.5,-0.219 0.514,-0.23 0.527,-0.244C0.54,-0.258 0.55,-0.275 0.557,-0.294C0.564,-0.313 0.567,-0.335 0.567,-0.358C0.567,-0.381 0.564,-0.401 0.557,-0.421C0.55,-0.44 0.54,-0.456 0.527,-0.469C0.514,-0.482 0.5,-0.492 0.483,-0.499C0.466,-0.506 0.447,-0.51 0.427,-0.51C0.407,-0.51 0.388,-0.506 0.371,-0.499C0.354,-0.492 0.339,-0.482 0.327,-0.469C0.314,-0.456 0.305,-0.44 0.298,-0.421C0.291,-0.401 0.287,-0.381 0.287,-0.358Z" style="fill:rgb(183,0,0);fill-rule:nonzero;"/>
        </g>
        <g transform="matrix(614.26,0,0,614.26,4134.47,733.03)">
            <path d="M0.034,-0.358C0.034,-0.415 0.044,-0.466 0.064,-0.512C0.084,-0.557 0.112,-0.596 0.147,-0.628C0.182,-0.66 0.223,-0.685 0.271,-0.702C0.319,-0.719 0.371,-0.728 0.427,-0.728C0.483,-0.728 0.535,-0.719 0.583,-0.702C0.631,-0.685 0.673,-0.66 0.708,-0.628C0.743,-0.596 0.771,-0.557 0.791,-0.512C0.811,-0.466 0.821,-0.415 0.821,-0.358C0.821,-0.301 0.811,-0.25 0.791,-0.203C0.771,-0.156 0.743,-0.117 0.708,-0.084C0.673,-0.051 0.631,-0.025 0.583,-0.007C0.535,0.011 0.483,0.02 0.427,0.02C0.371,0.02 0.319,0.011 0.271,-0.007C0.223,-0.025 0.182,-0.051 0.147,-0.084C0.112,-0.117 0.084,-0.156 0.064,-0.203C0.044,-0.25 0.034,-0.301 0.034,-0.358ZM0.287,-0.358C0.287,-0.335 0.291,-0.313 0.298,-0.294C0.305,-0.275 0.314,-0.258 0.327,-0.244C0.339,-0.23 0.354,-0.219 0.371,-0.212C0.388,-0.204 0.407,-0.2 0.427,-0.2C0.447,-0.2 0.466,-0.204 0.483,-0.212C0.5,-0.219 0.514,-0.23 0.527,-0.244C0.54,-0.258 0.55,-0.275 0.557,-0.294C0.564,-0.313 0.567,-0.335 0.567,-0.358C0.567,-0.381 0.564,-0.401 0.557,-0.421C0.55,-0.44 0.54,-0.456 0.527,-0.469C0.514,-0.482 0.5,-0.492 0.483,-0.499C0.466,-0.506 0.447,-0.51 0.427,-0.51C0.407,-0.51 0.388,-0.506 0.371,-0.499C0.354,-0.492 0.339,-0.482 0.327,-0.469C0.314,-0.456 0.305,-0.44 0.298,-0.421C0.291,-0.401 0.287,-0.381 0.287,-0.358Z" style="fill:rgb(183,0,0);fill-rule:nonzero;"/>
        </g>
        <g transform="matrix(614.26,0,0,614.26,4644.3,733.03)">
            <path d="M0.066,-0L0.066,-0.708L0.33,-0.708C0.386,-0.708 0.44,-0.703 0.491,-0.692C0.542,-0.681 0.587,-0.662 0.626,-0.635C0.665,-0.608 0.696,-0.572 0.719,-0.527C0.742,-0.482 0.754,-0.426 0.754,-0.358C0.754,-0.296 0.743,-0.242 0.721,-0.197C0.698,-0.152 0.668,-0.115 0.631,-0.086C0.594,-0.057 0.551,-0.035 0.502,-0.021C0.453,-0.007 0.403,-0 0.35,-0L0.066,-0ZM0.295,-0.506L0.295,-0.204L0.339,-0.204C0.395,-0.204 0.438,-0.216 0.468,-0.241C0.498,-0.265 0.513,-0.305 0.513,-0.36C0.513,-0.406 0.498,-0.442 0.468,-0.468C0.438,-0.493 0.398,-0.506 0.348,-0.506L0.295,-0.506Z" style="fill:rgb(183,0,0);fill-rule:nonzero;"/>
        </g>
        <g transform="matrix(614.26,0,0,614.26,338.338,1341.15)">
            <path d="M0.298,0.02C0.269,0.02 0.241,0.018 0.214,0.013C0.186,0.008 0.159,0 0.134,-0.01C0.108,-0.019 0.084,-0.031 0.061,-0.044C0.038,-0.057 0.018,-0.071 0,-0.087L0.145,-0.245C0.162,-0.227 0.184,-0.211 0.212,-0.197C0.239,-0.183 0.268,-0.176 0.297,-0.176C0.31,-0.176 0.323,-0.178 0.334,-0.183C0.345,-0.188 0.35,-0.196 0.35,-0.209C0.35,-0.216 0.348,-0.221 0.345,-0.226C0.341,-0.231 0.334,-0.236 0.325,-0.241C0.316,-0.245 0.303,-0.251 0.287,-0.257C0.27,-0.263 0.25,-0.27 0.225,-0.278C0.201,-0.286 0.178,-0.296 0.156,-0.307C0.134,-0.318 0.115,-0.331 0.098,-0.347C0.081,-0.363 0.067,-0.382 0.057,-0.405C0.047,-0.427 0.042,-0.454 0.042,-0.485C0.042,-0.529 0.051,-0.566 0.069,-0.597C0.087,-0.628 0.11,-0.653 0.139,-0.673C0.167,-0.692 0.199,-0.706 0.234,-0.715C0.269,-0.724 0.304,-0.728 0.339,-0.728C0.386,-0.728 0.433,-0.719 0.482,-0.701C0.53,-0.683 0.572,-0.657 0.609,-0.623L0.461,-0.472C0.445,-0.492 0.425,-0.507 0.402,-0.518C0.379,-0.528 0.358,-0.533 0.339,-0.533C0.322,-0.533 0.308,-0.531 0.297,-0.526C0.286,-0.521 0.281,-0.512 0.281,-0.501C0.281,-0.49 0.287,-0.482 0.298,-0.477C0.309,-0.472 0.326,-0.465 0.351,-0.457C0.376,-0.449 0.403,-0.44 0.431,-0.429C0.459,-0.418 0.485,-0.405 0.509,-0.388C0.532,-0.371 0.552,-0.35 0.567,-0.325C0.582,-0.3 0.59,-0.27 0.59,-0.233C0.59,-0.19 0.582,-0.153 0.565,-0.122C0.548,-0.09 0.525,-0.064 0.498,-0.043C0.47,-0.022 0.439,-0.006 0.404,0.005C0.369,0.015 0.334,0.02 0.298,0.02Z" style="fill-rule:nonzero;"/>
        </g>
        <g transform="matrix(614.26,0,0,614.26,701.981,1341.15)">
            <path d="M0.066,-0.708L0.553,-0.708L0.553,-0.51L0.29,-0.51L0.29,-0.449L0.537,-0.449L0.537,-0.264L0.29,-0.264L0.29,-0.198L0.57,-0.198L0.57,-0L0.066,-0L0.066,-0.708Z" style="fill-rule:nonzero;"/>
        </g>
        <g transform="matrix(614.26,0,0,614.26,1057.02,1341.15)">
            <path d="M0.066,-0.708L0.306,-0.708L0.306,-0.204L0.541,-0.204L0.541,-0L0.066,-0L0.066,-0.708Z" style="fill-rule:nonzero;"/>
        </g>
        <g transform="matrix(614.26,0,0,614.26,1378.9,1341.15)">
            <path d="M0.066,-0.708L0.553,-0.708L0.553,-0.51L0.29,-0.51L0.29,-0.449L0.537,-0.449L0.537,-0.264L0.29,-0.264L0.29,-0.198L0.57,-0.198L0.57,-0L0.066,-0L0.066,-0.708Z" style="fill-rule:nonzero;"/>
        </g>
        <g transform="matrix(614.26,0,0,614.26,1733.94,1341.15)">
            <path d="M0.034,-0.354C0.034,-0.411 0.044,-0.462 0.064,-0.508C0.084,-0.554 0.111,-0.593 0.146,-0.626C0.181,-0.659 0.222,-0.684 0.269,-0.702C0.316,-0.719 0.366,-0.728 0.419,-0.728C0.474,-0.728 0.525,-0.719 0.574,-0.702C0.623,-0.684 0.663,-0.66 0.696,-0.63L0.55,-0.454C0.537,-0.471 0.52,-0.485 0.5,-0.494C0.48,-0.503 0.458,-0.507 0.433,-0.507C0.413,-0.507 0.394,-0.503 0.377,-0.497C0.36,-0.49 0.345,-0.479 0.332,-0.466C0.319,-0.453 0.308,-0.436 0.301,-0.418C0.294,-0.399 0.29,-0.377 0.29,-0.354C0.29,-0.331 0.294,-0.31 0.302,-0.292C0.309,-0.273 0.32,-0.257 0.333,-0.244C0.345,-0.231 0.361,-0.221 0.378,-0.214C0.395,-0.207 0.414,-0.203 0.433,-0.203C0.46,-0.203 0.484,-0.209 0.504,-0.22C0.523,-0.231 0.539,-0.245 0.55,-0.26L0.696,-0.085C0.664,-0.053 0.625,-0.027 0.578,-0.009C0.531,0.011 0.478,0.02 0.419,0.02C0.366,0.02 0.316,0.011 0.269,-0.007C0.222,-0.025 0.181,-0.051 0.146,-0.084C0.111,-0.117 0.084,-0.156 0.064,-0.202C0.044,-0.247 0.034,-0.298 0.034,-0.354Z" style="fill-rule:nonzero;"/>
        </g>
        <g transform="matrix(614.26,0,0,614.26,2142.42,1341.15)">
            <path d="M0.419,-0L0.181,-0L0.181,-0.507L0.007,-0.507L0.007,-0.708L0.593,-0.708L0.593,-0.507L0.419,-0.507L0.419,-0Z" style="fill-rule:nonzero;"/>
        </g>
        <g transform="matrix(614.26,0,0,614.26,2495.62,1341.15)">
            <rect x="0.066" y="-0.708" width="0.24" height="0.708" style="fill-rule:nonzero;"/>
        </g>
        <g transform="matrix(614.26,0,0,614.26,2708.77,1341.15)">
            <path d="M0.034,-0.358C0.034,-0.415 0.044,-0.466 0.064,-0.512C0.084,-0.557 0.112,-0.596 0.147,-0.628C0.182,-0.66 0.223,-0.685 0.271,-0.702C0.319,-0.719 0.371,-0.728 0.427,-0.728C0.483,-0.728 0.535,-0.719 0.583,-0.702C0.631,-0.685 0.673,-0.66 0.708,-0.628C0.743,-0.596 0.771,-0.557 0.791,-0.512C0.811,-0.466 0.821,-0.415 0.821,-0.358C0.821,-0.301 0.811,-0.25 0.791,-0.203C0.771,-0.156 0.743,-0.117 0.708,-0.084C0.673,-0.051 0.631,-0.025 0.583,-0.007C0.535,0.011 0.483,0.02 0.427,0.02C0.371,0.02 0.319,0.011 0.271,-0.007C0.223,-0.025 0.182,-0.051 0.147,-0.084C0.112,-0.117 0.084,-0.156 0.064,-0.203C0.044,-0.25 0.034,-0.301 0.034,-0.358ZM0.287,-0.358C0.287,-0.335 0.291,-0.313 0.298,-0.294C0.305,-0.275 0.314,-0.258 0.327,-0.244C0.339,-0.23 0.354,-0.219 0.371,-0.212C0.388,-0.204 0.407,-0.2 0.427,-0.2C0.447,-0.2 0.466,-0.204 0.483,-0.212C0.5,-0.219 0.514,-0.23 0.527,-0.244C0.54,-0.258 0.55,-0.275 0.557,-0.294C0.564,-0.313 0.567,-0.335 0.567,-0.358C0.567,-0.381 0.564,-0.401 0.557,-0.421C0.55,-0.44 0.54,-0.456 0.527,-0.469C0.514,-0.482 0.5,-0.492 0.483,-0.499C0.466,-0.506 0.447,-0.51 0.427,-0.51C0.407,-0.51 0.388,-0.506 0.371,-0.499C0.354,-0.492 0.339,-0.482 0.327,-0.469C0.314,-0.456 0.305,-0.44 0.298,-0.421C0.291,-0.401 0.287,-0.381 0.287,-0.358Z" style="fill-rule:nonzero;"/>
        </g>
        <g transform="matrix(614.26,0,0,614.26,3218.61,1341.15)">
            <path d="M0.066,-0.708L0.303,-0.708L0.505,-0.349L0.509,-0.349L0.499,-0.708L0.725,-0.708L0.725,-0L0.482,-0L0.286,-0.338L0.282,-0.338L0.292,-0L0.066,-0L0.066,-0.708Z" style="fill-rule:nonzero;"/>
        </g>
        <g transform="matrix(614.26,0,0,614.26,3770.67,1341.15)">
            <path d="M0.034,-0.358C0.034,-0.415 0.044,-0.466 0.064,-0.512C0.084,-0.557 0.112,-0.596 0.147,-0.628C0.182,-0.66 0.223,-0.685 0.271,-0.702C0.319,-0.719 0.371,-0.728 0.427,-0.728C0.483,-0.728 0.535,-0.719 0.583,-0.702C0.631,-0.685 0.673,-0.66 0.708,-0.628C0.743,-0.596 0.771,-0.557 0.791,-0.512C0.811,-0.466 0.821,-0.415 0.821,-0.358C0.821,-0.301 0.811,-0.25 0.791,-0.203C0.771,-0.156 0.743,-0.117 0.708,-0.084C0.673,-0.051 0.631,-0.025 0.583,-0.007C0.535,0.011 0.483,0.02 0.427,0.02C0.371,0.02 0.319,0.011 0.271,-0.007C0.223,-0.025 0.182,-0.051 0.147,-0.084C0.112,-0.117 0.084,-0.156 0.064,-0.203C0.044,-0.25 0.034,-0.301 0.034,-0.358ZM0.287,-0.358C0.287,-0.335 0.291,-0.313 0.298,-0.294C0.305,-0.275 0.314,-0.258 0.327,-0.244C0.339,-0.23 0.354,-0.219 0.371,-0.212C0.388,-0.204 0.407,-0.2 0.427,-0.2C0.447,-0.2 0.466,-0.204 0.483,-0.212C0.5,-0.219 0.514,-0.23 0.527,-0.244C0.54,-0.258 0.55,-0.275 0.557,-0.294C0.564,-0.313 0.567,-0.335 0.567,-0.358C0.567,-0.381 0.564,-0.401 0.557,-0.421C0.55,-0.44 0.54,-0.456 0.527,-0.469C0.514,-0.482 0.5,-0.492 0.483,-0.499C0.466,-0.506 0.447,-0.51 0.427,-0.51C0.407,-0.51 0.388,-0.506 0.371,-0.499C0.354,-0.492 0.339,-0.482 0.327,-0.469C0.314,-0.456 0.305,-0.44 0.298,-0.421C0.291,-0.401 0.287,-0.381 0.287,-0.358Z" style="fill-rule:nonzero;"/>
        </g>
        <g transform="matrix(614.26,0,0,614.26,4280.51,1341.15)">
            <path d="M0.299,-0.434L0.515,-0.434L0.515,-0.24L0.3,-0.24L0.3,-0L0.066,-0L0.066,-0.708L0.544,-0.708L0.544,-0.509L0.299,-0.509L0.299,-0.434Z" style="fill-rule:nonzero;"/>
        </g>
        <g transform="matrix(614.26,0,0,614.26,338.338,1949.27)">
            <path d="M0.066,-0.708L0.553,-0.708L0.553,-0.51L0.29,-0.51L0.29,-0.449L0.537,-0.449L0.537,-0.264L0.29,-0.264L0.29,-0.198L0.57,-0.198L0.57,-0L0.066,-0L0.066,-0.708Z" style="fill:rgb(183,0,0);fill-rule:nonzero;"/>
        </g>
        <g transform="matrix(614.26,0,0,614.26,693.381,1949.27)">
            <path d="M0.298,0.02C0.269,0.02 0.241,0.018 0.214,0.013C0.186,0.008 0.159,0 0.134,-0.01C0.108,-0.019 0.084,-0.031 0.061,-0.044C0.038,-0.057 0.018,-0.071 0,-0.087L0.145,-0.245C0.162,-0.227 0.184,-0.211 0.212,-0.197C0.239,-0.183 0.268,-0.176 0.297,-0.176C0.31,-0.176 0.323,-0.178 0.334,-0.183C0.345,-0.188 0.35,-0.196 0.35,-0.209C0.35,-0.216 0.348,-0.221 0.345,-0.226C0.341,-0.231 0.334,-0.236 0.325,-0.241C0.316,-0.245 0.303,-0.251 0.287,-0.257C0.27,-0.263 0.25,-0.27 0.225,-0.278C0.201,-0.286 0.178,-0.296 0.156,-0.307C0.134,-0.318 0.115,-0.331 0.098,-0.347C0.081,-0.363 0.067,-0.382 0.057,-0.405C0.047,-0.427 0.042,-0.454 0.042,-0.485C0.042,-0.529 0.051,-0.566 0.069,-0.597C0.087,-0.628 0.11,-0.653 0.139,-0.673C0.167,-0.692 0.199,-0.706 0.234,-0.715C0.269,-0.724 0.304,-0.728 0.339,-0.728C0.386,-0.728 0.433,-0.719 0.482,-0.701C0.53,-0.683 0.572,-0.657 0.609,-0.623L0.461,-0.472C0.445,-0.492 0.425,-0.507 0.402,-0.518C0.379,-0.528 0.358,-0.533 0.339,-0.533C0.322,-0.533 0.308,-0.531 0.297,-0.526C0.286,-0.521 0.281,-0.512 0.281,-0.501C0.281,-0.49 0.287,-0.482 0.298,-0.477C0.309,-0.472 0.326,-0.465 0.351,-0.457C0.376,-0.449 0.403,-0.44 0.431,-0.429C0.459,-0.418 0.485,-0.405 0.509,-0.388C0.532,-0.371 0.552,-0.35 0.567,-0.325C0.582,-0.3 0.59,-0.27 0.59,-0.233C0.59,-0.19 0.582,-0.153 0.565,-0.122C0.548,-0.09 0.525,-0.064 0.498,-0.043C0.47,-0.022 0.439,-0.006 0.404,0.005C0.369,0.015 0.334,0.02 0.298,0.02Z" style="fill:rgb(183,0,0);fill-rule:nonzero;"/>
        </g>
        <g transform="matrix(614.26,0,0,614.26,1057.02,1949.27)">
            <path d="M0.298,0.02C0.269,0.02 0.241,0.018 0.214,0.013C0.186,0.008 0.159,0 0.134,-0.01C0.108,-0.019 0.084,-0.031 0.061,-0.044C0.038,-0.057 0.018,-0.071 0,-0.087L0.145,-0.245C0.162,-0.227 0.184,-0.211 0.212,-0.197C0.239,-0.183 0.268,-0.176 0.297,-0.176C0.31,-0.176 0.323,-0.178 0.334,-0.183C0.345,-0.188 0.35,-0.196 0.35,-0.209C0.35,-0.216 0.348,-0.221 0.345,-0.226C0.341,-0.231 0.334,-0.236 0.325,-0.241C0.316,-0.245 0.303,-0.251 0.287,-0.257C0.27,-0.263 0.25,-0.27 0.225,-0.278C0.201,-0.286 0.178,-0.296 0.156,-0.307C0.134,-0.318 0.115,-0.331 0.098,-0.347C0.081,-0.363 0.067,-0.382 0.057,-0.405C0.047,-0.427 0.042,-0.454 0.042,-0.485C0.042,-0.529 0.051,-0.566 0.069,-0.597C0.087,-0.628 0.11,-0.653 0.139,-0.673C0.167,-0.692 0.199,-0.706 0.234,-0.715C0.269,-0.724 0.304,-0.728 0.339,-0.728C0.386,-0.728 0.433,-0.719 0.482,-0.701C0.53,-0.683 0.572,-0.657 0.609,-0.623L0.461,-0.472C0.445,-0.492 0.425,-0.507 0.402,-0.518C0.379,-0.528 0.358,-0.533 0.339,-0.533C0.322,-0.533 0.308,-0.531 0.297,-0.526C0.286,-0.521 0.281,-0.512 0.281,-0.501C0.281,-0.49 0.287,-0.482 0.298,-0.477C0.309,-0.472 0.326,-0.465 0.351,-0.457C0.376,-0.449 0.403,-0.44 0.431,-0.429C0.459,-0.418 0.485,-0.405 0.509,-0.388C0.532,-0.371 0.552,-0.35 0.567,-0.325C0.582,-0.3 0.59,-0.27 0.59,-0.233C0.59,-0.19 0.582,-0.153 0.565,-0.122C0.548,-0.09 0.525,-0.064 0.498,-0.043C0.47,-0.022 0.439,-0.006 0.404,0.005C0.369,0.015 0.334,0.02 0.298,0.02Z" style="fill:rgb(183,0,0);fill-rule:nonzero;"/>
        </g>
        <g transform="matrix(614.26,0,0,614.26,1420.67,1949.27)">
            <path d="M0.263,-0.708L0.516,-0.708L0.792,-0L0.533,-0L0.496,-0.104L0.271,-0.104L0.236,-0L-0.016,-0L0.263,-0.708ZM0.386,-0.461L0.328,-0.286L0.443,-0.286L0.386,-0.461Z" style="fill:rgb(183,0,0);fill-rule:nonzero;"/>
        </g>
        <g transform="matrix(614.26,0,0,614.26,1845.12,1949.27)">
            <path d="M0.481,-0L0.243,-0L0.243,-0.29L-0.024,-0.708L0.263,-0.708L0.375,-0.5L0.482,-0.708L0.762,-0.708L0.481,-0.29L0.481,-0Z" style="fill:rgb(183,0,0);fill-rule:nonzero;"/>
        </g>
        <g transform="matrix(614.26,0,0,614.26,2283.09,1949.27)">
            <path d="M0.298,0.02C0.269,0.02 0.241,0.018 0.214,0.013C0.186,0.008 0.159,0 0.134,-0.01C0.108,-0.019 0.084,-0.031 0.061,-0.044C0.038,-0.057 0.018,-0.071 0,-0.087L0.145,-0.245C0.162,-0.227 0.184,-0.211 0.212,-0.197C0.239,-0.183 0.268,-0.176 0.297,-0.176C0.31,-0.176 0.323,-0.178 0.334,-0.183C0.345,-0.188 0.35,-0.196 0.35,-0.209C0.35,-0.216 0.348,-0.221 0.345,-0.226C0.341,-0.231 0.334,-0.236 0.325,-0.241C0.316,-0.245 0.303,-0.251 0.287,-0.257C0.27,-0.263 0.25,-0.27 0.225,-0.278C0.201,-0.286 0.178,-0.296 0.156,-0.307C0.134,-0.318 0.115,-0.331 0.098,-0.347C0.081,-0.363 0.067,-0.382 0.057,-0.405C0.047,-0.427 0.042,-0.454 0.042,-0.485C0.042,-0.529 0.051,-0.566 0.069,-0.597C0.087,-0.628 0.11,-0.653 0.139,-0.673C0.167,-0.692 0.199,-0.706 0.234,-0.715C0.269,-0.724 0.304,-0.728 0.339,-0.728C0.386,-0.728 0.433,-0.719 0.482,-0.701C0.53,-0.683 0.572,-0.657 0.609,-0.623L0.461,-0.472C0.445,-0.492 0.425,-0.507 0.402,-0.518C0.379,-0.528 0.358,-0.533 0.339,-0.533C0.322,-0.533 0.308,-0.531 0.297,-0.526C0.286,-0.521 0.281,-0.512 0.281,-0.501C0.281,-0.49 0.287,-0.482 0.298,-0.477C0.309,-0.472 0.326,-0.465 0.351,-0.457C0.376,-0.449 0.403,-0.44 0.431,-0.429C0.459,-0.418 0.485,-0.405 0.509,-0.388C0.532,-0.371 0.552,-0.35 0.567,-0.325C0.582,-0.3 0.59,-0.27 0.59,-0.233C0.59,-0.19 0.582,-0.153 0.565,-0.122C0.548,-0.09 0.525,-0.064 0.498,-0.043C0.47,-0.022 0.439,-0.006 0.404,0.005C0.369,0.015 0.334,0.02 0.298,0.02Z" style="fill:rgb(183,0,0);fill-rule:nonzero;"/>
        </g>
    </g>
</svg>
